<svg width="71" height="75" viewBox="0 0 71 75" fill="none" xmlns="http://www.w3.org/2000/svg">
<path fill-rule="evenodd" clip-rule="evenodd" d="M52.5222 66.852C52.9905 68.1231 53.4355 69.3787 53.8572 70.6187C54.7066 73.1166 57.0243 74.844 59.6627 74.844H64.8155C68.9446 74.844 71.8396 70.7699 70.4606 66.878C69.9093 65.3219 69.3639 63.7912 68.8245 62.2858C67.3466 58.1613 62.0841 57.0009 58.986 60.0989L52.6095 66.4755C52.5109 66.574 52.477 66.7201 52.5222 66.852V66.852ZM48.0562 56.8866C46.931 58.0119 45.4048 58.644 43.8135 58.644H24.8429C22.2777 58.644 20.0008 60.2764 19.1424 62.6937C18.6503 64.0798 18.1488 65.4659 17.6382 66.852C17.2044 68.12 16.786 69.3726 16.3832 70.6097C15.5662 73.1183 13.244 74.844 10.6057 74.844H5.99281C1.86375 74.844 -1.0313 70.77 0.347704 66.878C2.14231 61.8131 3.8738 57.0164 5.54217 52.488C8.06217 45.648 10.5102 39.204 12.8862 33.156C15.3342 27.108 17.7102 21.384 20.0142 15.984C21.8762 11.6958 23.7824 7.49597 25.7328 3.38461C26.7173 1.30948 28.8161 0 31.1129 0H39.6482C41.9694 0 44.0851 1.33771 45.0613 3.44376C46.9581 7.53625 48.8331 11.7163 50.6862 15.984C53.0622 21.384 55.4382 27.108 57.8142 33.156C58.657 35.2383 59.5041 37.3676 60.3555 39.5438C61.2192 41.7514 60.6845 44.2583 59.0083 45.9345L48.0562 56.8866ZM33.4062 21.384V21.384C33.9838 19.8822 36.1765 19.8822 36.7542 21.384V21.384C37.4742 23.256 38.3022 25.416 39.2382 27.864C40.2462 30.312 41.2902 33.012 42.3702 35.964C42.5262 36.3905 42.683 36.82 42.8405 37.2525C44.2593 41.1477 41.3625 45.252 37.2169 45.252H32.9435C28.7979 45.252 25.901 41.1477 27.3198 37.2525C27.4774 36.82 27.6341 36.3905 27.7902 35.964C28.9422 33.012 29.9862 30.312 30.9222 27.864C31.8582 25.416 32.6862 23.256 33.4062 21.384Z" fill="#D96C06"/>
<path fill-rule="evenodd" clip-rule="evenodd" d="M59.0083 45.9344C60.6845 44.2583 61.2191 41.7513 60.3555 39.5438C59.5041 37.3676 58.657 35.2383 57.8142 33.156C55.4382 27.108 53.0622 21.384 50.6862 15.984C48.8331 11.7163 46.9581 7.53625 45.0613 3.44376C44.0851 1.33771 41.9694 0 39.6482 0H31.1129C28.8161 0 26.7173 1.30948 25.7328 3.38461C23.7824 7.49597 21.8762 11.6958 20.0142 15.984C17.7102 21.384 15.3342 27.108 12.8862 33.156C10.5102 39.204 8.06217 45.648 5.54217 52.488C3.8738 57.0164 2.14231 61.8131 0.347704 66.878C-1.0313 70.77 1.86375 74.844 5.99281 74.844H10.6057C13.244 74.844 15.5662 73.1183 16.3832 70.6097C16.786 69.3726 17.2044 68.12 17.6382 66.852C18.1488 65.4659 18.6503 64.0798 19.1424 62.6937C20.0008 60.2764 22.2777 58.644 24.8429 58.644H43.8135C45.4048 58.644 46.9309 58.0119 48.0561 56.8866L59.0083 45.9344ZM33.4062 21.384V21.384C33.9838 19.8822 36.1765 19.8822 36.7542 21.384V21.384C37.4742 23.256 38.3022 25.416 39.2382 27.864C40.2462 30.312 41.2902 33.012 42.3702 35.964C42.5262 36.3905 42.683 36.82 42.8405 37.2525C44.2593 41.1477 41.3625 45.252 37.2169 45.252H32.9435C28.7979 45.252 25.901 41.1477 27.3198 37.2525C27.4774 36.82 27.6341 36.3905 27.7902 35.964C28.9422 33.012 29.9862 30.312 30.9222 27.864C31.8582 25.416 32.6862 23.256 33.4062 21.384Z" fill="#2292A4"/>
</svg>
