<svg width="150" height="150" viewBox="0 0 150 150" fill="none" xmlns="http://www.w3.org/2000/svg">
<path d="M109.263 133.983C110.202 136.53 111.094 139.047 111.939 141.532C113.641 146.538 118.286 150 123.574 150H133.901C142.177 150 147.979 141.835 145.215 134.035C144.11 130.916 143.017 127.848 141.936 124.831C138.974 116.565 128.427 114.239 122.218 120.448L109.438 133.228C109.241 133.426 109.173 133.718 109.263 133.983Z" fill="#D96C06"/>
<path fill-rule="evenodd" clip-rule="evenodd" d="M100.313 114.01C98.0575 116.266 94.9989 117.532 91.8097 117.532H53.7894C48.6483 117.532 44.085 120.804 42.3647 125.649C41.3783 128.427 40.3733 131.205 39.3499 133.983C38.4805 136.524 37.6421 139.034 36.8346 141.514C35.1973 146.541 30.5432 150 25.2555 150H16.0106C7.73527 150 1.9331 141.835 4.69686 134.035C8.29355 123.884 11.7637 114.271 15.1074 105.195C20.1579 91.4863 25.0641 78.5714 29.8261 66.4502C34.7323 54.329 39.4942 42.8571 44.1118 32.0346C47.8435 23.4403 51.6639 15.0232 55.5729 6.78333C57.5459 2.62442 61.7522 0 66.3554 0H83.4616C88.1138 0 92.354 2.68099 94.3104 6.90187C98.112 15.1039 101.87 23.4815 105.584 32.0346C110.346 42.8571 115.107 54.329 119.869 66.4502C121.559 70.6236 123.256 74.891 124.963 79.2525C126.694 83.6768 125.622 88.7011 122.263 92.0604L100.313 114.01ZM70.9516 42.8571C72.1093 39.8472 76.5039 39.8472 77.6615 42.8571C79.1046 46.6089 80.764 50.9379 82.6399 55.8441C84.6601 60.7504 86.7525 66.1616 88.917 72.0779C89.2297 72.9327 89.5439 73.7934 89.8596 74.6602C92.7032 82.467 86.8974 90.6926 78.5889 90.6926H70.0243C61.7158 90.6926 55.91 82.467 58.7535 74.6602C59.0693 73.7934 59.3835 72.9327 59.6962 72.0779C62.005 66.1616 64.0973 60.7504 65.9732 55.8441C67.8491 50.9379 69.5086 46.6089 70.9516 42.8571Z" fill="#D96C06"/>
<path fill-rule="evenodd" clip-rule="evenodd" d="M122.263 92.0604C125.622 88.701 126.693 83.6767 124.963 79.2524C123.256 74.891 121.559 70.6235 119.869 66.4502C115.107 54.329 110.346 42.8571 105.584 32.0346C101.87 23.4815 98.112 15.1039 94.3104 6.90187C92.354 2.68099 88.1138 0 83.4616 0H66.3554C61.7522 0 57.5459 2.62442 55.5729 6.78333C51.6639 15.0232 47.8435 23.4403 44.1118 32.0346C39.4942 42.8571 34.7323 54.329 29.8261 66.4502C25.0642 78.5714 20.1579 91.4863 15.1074 105.195C11.7637 114.271 8.29355 123.884 4.69686 134.035C1.9331 141.835 7.73527 150 16.0106 150H25.2555C30.5432 150 35.1973 146.541 36.8347 141.514C37.6421 139.034 38.4805 136.524 39.3499 133.983C40.3733 131.205 41.3783 128.427 42.3647 125.649C44.085 120.804 48.6483 117.532 53.7894 117.532H91.8096C94.9988 117.532 98.0574 116.266 100.313 114.01L122.263 92.0604ZM70.9516 42.8571C72.1093 39.8472 76.5039 39.8472 77.6616 42.8571C79.1046 46.6089 80.764 50.9379 82.6399 55.8441C84.6601 60.7504 86.7525 66.1616 88.917 72.0779C89.2297 72.9327 89.5439 73.7934 89.8596 74.6602C92.7032 82.467 86.8974 90.6926 78.5889 90.6926H70.0243C61.7158 90.6926 55.91 82.467 58.7535 74.6602C59.0693 73.7934 59.3835 72.9327 59.6962 72.0779C62.005 66.1616 64.0973 60.7504 65.9732 55.8441C67.8491 50.9379 69.5086 46.6089 70.9516 42.8571Z" fill="#2292A4"/>
</svg>
