<svg width="150" height="150" viewBox="0 0 150 150" fill="none" xmlns="http://www.w3.org/2000/svg">
<path fill-rule="evenodd" clip-rule="evenodd" d="M92.5222 104.852C92.9905 106.123 93.4355 107.379 93.8572 108.619C94.7066 111.117 97.0243 112.844 99.6627 112.844H104.816C108.945 112.844 111.84 108.77 110.461 104.878C109.909 103.322 109.364 101.791 108.824 100.286C107.347 96.1613 102.084 95.0009 98.986 98.0989L92.6095 104.475C92.5109 104.574 92.477 104.72 92.5222 104.852V104.852ZM88.0562 94.8866C86.931 96.0119 85.4048 96.644 83.8135 96.644H64.8429C62.2777 96.644 60.0008 98.2764 59.1424 100.694C58.6503 102.08 58.1488 103.466 57.6382 104.852C57.2044 106.12 56.786 107.373 56.3832 108.61C55.5662 111.118 53.244 112.844 50.6057 112.844H45.9928C41.8638 112.844 38.9687 108.77 40.3477 104.878C42.1423 99.8131 43.8738 95.0164 45.5422 90.488C48.0622 83.648 50.5102 77.204 52.8862 71.156C55.3342 65.108 57.7102 59.384 60.0142 53.984C61.8762 49.6958 63.7824 45.496 65.7328 41.3846C66.7173 39.3095 68.8161 38 71.1129 38H79.6482C81.9694 38 84.0851 39.3377 85.0613 41.4438C86.9581 45.5362 88.8331 49.7163 90.6862 53.984C93.0622 59.384 95.4382 65.108 97.8142 71.156C98.657 73.2383 99.5041 75.3676 100.356 77.5438C101.219 79.7514 100.685 82.2583 99.0083 83.9345L88.0562 94.8866ZM73.4062 59.384V59.384C73.9838 57.8822 76.1765 57.8822 76.7542 59.384V59.384C77.4742 61.256 78.3022 63.416 79.2382 65.864C80.2462 68.312 81.2902 71.012 82.3702 73.964C82.5262 74.3905 82.683 74.82 82.8405 75.2525C84.2593 79.1477 81.3625 83.252 77.2169 83.252H72.9435C68.7979 83.252 65.901 79.1477 67.3198 75.2525C67.4774 74.82 67.6341 74.3905 67.7902 73.964C68.9422 71.012 69.9862 68.312 70.9222 65.864C71.8582 63.416 72.6862 61.256 73.4062 59.384Z" fill="#D96C06"/>
<path fill-rule="evenodd" clip-rule="evenodd" d="M99.0083 83.9344C100.684 82.2583 101.219 79.7513 100.356 77.5438C99.5041 75.3676 98.657 73.2383 97.8142 71.156C95.4382 65.108 93.0622 59.384 90.6862 53.984C88.8331 49.7163 86.9581 45.5362 85.0613 41.4438C84.0851 39.3377 81.9694 38 79.6482 38H71.1129C68.8161 38 66.7173 39.3095 65.7328 41.3846C63.7824 45.496 61.8762 49.6958 60.0142 53.984C57.7102 59.384 55.3342 65.108 52.8862 71.156C50.5102 77.204 48.0622 83.648 45.5422 90.488C43.8738 95.0164 42.1423 99.8131 40.3477 104.878C38.9687 108.77 41.8638 112.844 45.9928 112.844H50.6057C53.244 112.844 55.5662 111.118 56.3832 108.61C56.786 107.373 57.2044 106.12 57.6382 104.852C58.1488 103.466 58.6503 102.08 59.1424 100.694C60.0008 98.2764 62.2777 96.644 64.8429 96.644H83.8135C85.4048 96.644 86.9309 96.0119 88.0561 94.8866L99.0083 83.9344ZM73.4062 59.384V59.384C73.9838 57.8822 76.1765 57.8822 76.7542 59.384V59.384C77.4742 61.256 78.3022 63.416 79.2382 65.864C80.2462 68.312 81.2902 71.012 82.3702 73.964C82.5262 74.3905 82.683 74.82 82.8405 75.2525C84.2593 79.1477 81.3625 83.252 77.2169 83.252H72.9435C68.7979 83.252 65.901 79.1477 67.3198 75.2525C67.4774 74.82 67.6341 74.3905 67.7902 73.964C68.9422 71.012 69.9862 68.312 70.9222 65.864C71.8582 63.416 72.6862 61.256 73.4062 59.384Z" fill="#2292A4"/>
</svg>
